<svg viewBox="0 0 20 20" xmlns="http://www.w3.org/2000/svg">
    <path d="M5.2875 1.30424C5.18875 1.30424 5.09 1.30799 4.99188 1.31674C3.12937 1.46361 1.25 3.073 1.25 6.3324C1.25 12.2337 8.2825 17.4387 9.97312 18.6037C11.64 17.2831 18.75 11.3224 18.75 5.82615C18.75 2.87237 16.9331 1.40486 15.1331 1.26174C13.2413 1.11174 11.1112 2.33674 10.6169 5.41802C10.5934 5.56485 10.5184 5.69851 10.4053 5.79501C10.2922 5.8915 10.1484 5.94451 9.99969 5.94451C9.851 5.94451 9.70719 5.8915 9.59407 5.79501C9.48095 5.69851 9.40594 5.56485 9.3825 5.41802C8.92125 2.543 7.0425 1.30299 5.2875 1.30299V1.30424ZM10 20C9.88134 20 9.76515 19.9661 9.665 19.9025C9.27125 19.6525 0 13.6875 0 6.33365C0 2.27487 2.4575 0.264854 4.89375 0.0686026C6.74375 -0.0813985 8.89563 0.864859 10 3.18113C11.12 0.822983 13.325 -0.136399 15.2313 0.0154772C17.5281 0.198604 20 2.09487 20 5.82615C20 12.6493 10.7656 19.5844 10.3725 19.8762C10.2619 19.9575 10.1313 19.9994 10 19.9994"/>
</svg>
