<svg viewBox="0 0 22 22" xmlns="http://www.w3.org/2000/svg">
    <path fill-rule="evenodd" clip-rule="evenodd" d="M15.5 6C15.5 8.48528 13.4853 10.5 11 10.5C8.51472 10.5 6.5 8.48528 6.5 6C6.5 3.51472 8.51472 1.5 11 1.5C13.4853 1.5 15.5 3.51472 15.5 6ZM17 6C17 9.31371 14.3137 12 11 12C7.68629 12 5 9.31371 5 6C5 2.68629 7.68629 0 11 0C14.3137 0 17 2.68629 17 6ZM1.5 19.5C1.5 18.4504 2.22948 17.2325 3.98492 16.1952C5.70683 15.1777 8.18358 14.5 11 14.5C13.8164 14.5 16.2932 15.1777 18.0151 16.1952C19.7705 17.2325 20.5 18.4504 20.5 19.5C20.5 19.7761 20.2761 20 20 20H2C1.72386 20 1.5 19.7761 1.5 19.5ZM11 13C4.92487 13 0 15.9101 0 19.5C0 20.6046 0.89543 21.5 2 21.5H20C21.1046 21.5 22 20.6046 22 19.5C22 15.9101 17.0751 13 11 13Z"/>
</svg>
