<svg viewBox="0 0 19 20" xmlns="http://www.w3.org/2000/svg">
    <path fill-rule="evenodd" clip-rule="evenodd" d="M2.34315 13.6569C3.84344 15.1571 5.87827 16 8 16C9.54338 16 11.0408 15.554 12.3199 14.7334L16.659 19.071L18.073 17.657L13.861 13.445C15.2334 11.9679 16 10.0235 16 8C16 5.87827 15.1571 3.84344 13.6569 2.34315C12.1566 0.842855 10.1217 0 8 0C5.87827 0 3.84344 0.842855 2.34315 2.34315C0.842855 3.84344 0 5.87827 0 8C0 10.1217 0.842855 12.1566 2.34315 13.6569ZM12.4455 12.0295C12.9078 11.5196 13.2793 10.9333 13.5433 10.2961C13.8448 9.56815 14 8.78793 14 8C14 7.21207 13.8448 6.43185 13.5433 5.7039C13.2417 4.97595 12.7998 4.31451 12.2426 3.75736C11.6855 3.20021 11.0241 2.75825 10.2961 2.45672C9.56815 2.15519 8.78793 2 8 2C6.4087 2 4.88258 2.63214 3.75736 3.75736C2.63214 4.88258 2 6.4087 2 8C2 9.5913 2.63214 11.1174 3.75736 12.2426C4.88258 13.3679 6.4087 14 8 14C8.78793 14 9.56815 13.8448 10.2961 13.5433C10.7854 13.3406 11.2446 13.0745 11.6623 12.7526L12.416 12L12.4455 12.0295Z"/>
</svg>
